<?xml version="1.0" standalone="no"?>
<!DOCTYPE svg PUBLIC "-//W3C//DTD SVG 20010904//EN"
 "http://www.w3.org/TR/2001/REC-SVG-20010904/DTD/svg10.dtd">
<svg version="1.0" xmlns="http://www.w3.org/2000/svg"
 width="1280.000000pt" height="1203.000000pt" viewBox="0 0 1280.000000 1203.000000"
 preserveAspectRatio="xMidYMid meet">
<metadata>
Created by potrace 1.15, written by Peter Selinger 2001-2017
</metadata>
<g transform="translate(0.000000,1203.000000) scale(0.100000,-0.100000)"
fill="#000000" stroke="none">
<path d="M6268 12020 c-248 -45 -488 -209 -616 -421 -163 -269 -164 -617 -2
-891 54 -92 178 -216 290 -291 l86 -58 -168 -967 c-233 -1342 -460 -2627 -519
-2940 -27 -144 -49 -267 -49 -272 0 -17 -17 -11 -23 8 -3 9 -48 136 -100 282
-204 569 -1187 3413 -1187 3434 0 7 29 36 65 65 102 83 203 230 266 388 38 94
52 228 39 378 -10 116 -21 150 -90 284 -84 164 -197 281 -362 376 -326 189
-718 137 -1009 -133 -337 -313 -372 -802 -84 -1168 71 -89 156 -162 272 -230
51 -30 98 -64 104 -76 16 -29 13 -108 -26 -801 -83 -1476 -97 -1718 -135
-2380 -22 -384 -40 -714 -40 -734 0 -20 -3 -34 -6 -30 -6 6 -591 1205 -891
1827 -356 739 -583 1231 -585 1269 -1 9 28 60 65 113 204 300 247 570 136 858
-105 273 -295 447 -571 522 -71 19 -108 23 -248 23 -140 0 -177 -4 -248 -23
-276 -75 -466 -248 -572 -524 -164 -425 37 -915 445 -1081 33 -13 104 -39 158
-57 76 -26 98 -38 102 -54 2 -12 54 -424 115 -916 279 -2244 435 -3429 460
-3488 6 -13 227 -289 493 -615 366 -449 489 -606 509 -652 14 -33 119 -273
232 -533 l206 -473 -165 -379 c-207 -478 -317 -752 -323 -811 -9 -90 54 -165
222 -264 514 -302 1232 -505 2016 -570 328 -27 3508 -15 3911 15 515 38 1211
230 1670 460 306 154 408 246 397 359 -6 59 -116 333 -323 811 l-165 379 206
473 c113 260 218 500 232 533 20 46 143 203 509 652 266 326 487 602 493 615
25 59 181 1244 460 3488 61 492 113 904 115 916 4 16 26 28 102 54 221 75 322
131 419 232 232 241 304 596 184 906 -106 276 -296 449 -572 524 -71 19 -108
23 -248 23 -140 0 -177 -4 -248 -23 -276 -75 -466 -249 -571 -522 -111 -288
-68 -558 136 -858 37 -53 66 -104 65 -113 -2 -38 -229 -530 -585 -1269 -300
-622 -885 -1821 -891 -1827 -3 -4 -6 10 -6 30 0 20 -18 350 -40 734 -22 384
-54 937 -70 1228 -115 2028 -109 1919 -91 1953 6 12 53 46 104 76 171 101 286
220 371 386 70 135 87 198 93 335 7 149 -7 239 -52 345 -55 133 -112 218 -210
315 -305 304 -734 349 -1085 112 -160 -108 -288 -268 -351 -439 -25 -68 -49
-204 -49 -278 0 -240 133 -523 316 -672 35 -28 64 -57 64 -64 0 -21 -983
-2865 -1187 -3434 -52 -146 -97 -273 -100 -282 -6 -19 -23 -25 -23 -8 0 5 -22
128 -49 272 -59 313 -286 1598 -519 2940 l-168 967 86 58 c277 186 410 433
410 758 0 137 -17 209 -77 332 -121 248 -323 422 -575 493 -82 24 -272 35
-350 20z m296 -484 c161 -79 269 -260 251 -420 -15 -136 -124 -284 -255 -345
-73 -34 -194 -41 -272 -16 -153 50 -273 186 -298 339 -27 164 65 343 219 425
78 41 121 51 217 47 65 -2 93 -8 138 -30z m-2924 -517 c66 -31 157 -111 198
-177 102 -159 75 -360 -67 -501 -129 -129 -293 -159 -455 -83 -347 162 -319
643 44 770 88 31 201 27 280 -9z m5843 -7 c85 -42 167 -125 209 -210 31 -62
33 -74 33 -167 0 -92 -3 -105 -32 -168 -40 -84 -127 -173 -207 -212 -247 -121
-562 68 -583 350 -15 190 103 357 302 428 80 28 195 19 278 -21z m-8513 -1012
c128 -24 237 -105 284 -210 94 -210 21 -448 -167 -540 -219 -107 -493 -26
-581 171 -147 326 110 646 464 579z m11040 0 c128 -24 237 -105 284 -210 94
-210 21 -448 -167 -540 -219 -107 -493 -26 -581 171 -147 326 110 646 464 579z
m-5597 -307 c3 -21 28 -162 56 -313 138 -742 621 -3524 665 -3827 7 -51 3 -52
-67 -17 -145 73 -325 189 -447 288 -93 75 -168 116 -215 116 -47 0 -122 -40
-237 -129 -142 -107 -256 -181 -383 -247 -104 -53 -135 -64 -135 -44 0 6 25
146 55 313 30 166 104 588 165 937 283 1621 419 2393 471 2668 22 119 43 234
46 255 3 20 9 37 13 37 4 0 10 -17 13 -37z m-2739 -360 c180 -468 364 -994
1236 -3523 48 -140 97 -282 109 -315 28 -78 27 -83 -14 -91 -91 -17 -341 34
-623 127 -189 62 -256 76 -314 65 -18 -3 -91 -44 -163 -91 -127 -83 -450 -255
-480 -255 -19 0 -19 -29 10 445 13 220 36 603 50 850 14 248 43 765 65 1150
66 1150 89 1577 92 1633 1 28 4 52 8 52 3 0 14 -21 24 -47z m5485 -10 c1 -32
13 -251 26 -488 14 -236 47 -830 75 -1320 66 -1164 86 -1514 110 -1898 20
-313 19 -367 -4 -367 -31 0 -385 195 -519 286 -125 85 -157 84 -429 -5 -282
-93 -532 -144 -623 -127 -41 8 -42 13 -14 91 12 33 61 175 109 315 778 2256
993 2872 1143 3275 105 282 111 295 117 295 4 0 8 -26 9 -57z m-7302 -2233
c285 -581 771 -1583 888 -1828 32 -67 56 -125 53 -128 -3 -3 -34 -9 -69 -14
-69 -10 -217 -1 -421 26 -172 22 -203 11 -393 -136 -90 -69 -196 -143 -199
-139 -5 6 -7 27 -291 2324 -75 607 -115 948 -114 975 0 28 100 -168 546 -1080z
m9618 932 c-82 -691 -245 -2003 -351 -2817 -40 -309 -44 -335 -53 -335 -3 0
-69 50 -146 111 -154 122 -212 154 -295 164 -30 3 -147 -1 -260 -9 -258 -20
-370 -21 -370 -3 0 24 519 1096 1333 2751 84 170 153 302 155 293 2 -10 -4
-79 -13 -155z m-4943 -2702 c511 -334 1061 -449 1625 -340 103 20 280 69 409
114 l72 24 93 -55 c125 -74 371 -193 492 -237 412 -153 871 -212 1211 -157 66
11 124 17 130 14 23 -14 342 -271 353 -285 11 -13 -29 -67 -251 -344 -145
-181 -302 -374 -348 -429 l-85 -100 -49 2 c-31 0 -141 31 -297 82 -829 270
-1642 440 -2467 515 -388 36 -516 41 -1020 41 -504 0 -632 -5 -1020 -41 -839
-76 -1657 -248 -2500 -526 -151 -50 -280 -91 -285 -92 -6 -1 -38 31 -71 69
-93 107 -644 797 -644 805 0 15 298 268 356 303 6 3 64 -3 130 -14 340 -55
799 4 1211 157 121 44 367 163 492 237 l94 55 56 -19 c127 -45 358 -110 463
-131 100 -20 142 -23 353 -23 260 1 328 9 542 65 264 70 531 195 758 354 28
19 55 35 62 35 6 1 67 -35 135 -79z m478 -1630 c944 -63 1684 -196 2565 -460
355 -106 405 -123 405 -133 0 -5 -73 -175 -161 -378 -124 -283 -166 -369 -179
-369 -10 0 -62 16 -116 36 -948 346 -1696 511 -2614 575 -213 14 -807 14
-1020 0 -918 -64 -1666 -229 -2614 -575 -54 -20 -106 -36 -116 -36 -13 0 -55
86 -179 369 -88 203 -161 373 -161 378 0 5 98 39 218 76 1053 322 1917 479
2902 527 212 10 856 4 1070 -10z m55 -1211 c582 -32 1253 -170 1975 -404 326
-107 490 -177 547 -237 18 -18 57 -85 87 -148 68 -145 187 -432 181 -438 -2
-3 -78 18 -167 46 -229 71 -275 84 -523 146 -828 207 -1424 303 -2077 337
-306 15 -1322 6 -1584 -15 -341 -27 -578 -55 -859 -102 -439 -73 -1054 -220
-1498 -356 -109 -33 -200 -58 -202 -56 -6 6 113 294 181 438 30 63 69 130 87
148 57 60 221 130 547 237 674 219 1283 348 1885 401 248 22 1054 23 1420 3z
m-150 -1164 c165 -3 374 -11 465 -20 482 -43 1201 -169 1738 -305 271 -68 621
-179 601 -191 -57 -31 -496 -166 -659 -203 -174 -39 -450 -84 -585 -96 -66 -5
-345 -15 -620 -20 -667 -13 -3124 -13 -3291 0 -494 38 -898 117 -1303 255 -90
31 -170 59 -178 64 -22 12 318 121 599 191 553 140 1306 271 1793 311 153 12
815 27 1015 22 69 -1 260 -5 425 -8z"/>
</g>
</svg>
